ffmpeg started on 2025-06-06 at 15:30:15
Report written to "D:\Convert\FFMetrics\reports\psnr_report-6.txt"
Log level: 32
Command line:
ffmpeg -hide_banner -nostdin -i "G:\\\xc0\xed\xe8\xec\xe5\\\xce\xed\xe3\xee\xe8\xed\xe3\xe8\\!_36_\xce\xf1\xe5\xed\xfc_2024\\DreamCast\\\xcd\xe8\xed\xe0 \xe2 \xea\xee\xf0\xee\xeb\xe5\xe2\xf1\xf2\xe2\xe5 \xe7\xe2\xb8\xe7\xe4\\[DC] Hoshi Furu Oukoku no Nina - 10_Telegram_HEVC.mkv" -i "G:\\\xc0\xed\xe8\xec\xe5\\\xce\xed\xe3\xee\xe8\xed\xe3\xe8\\!_36_\xce\xf1\xe5\xed\xfc_2024\\DreamCast\\\xcd\xe8\xed\xe0 \xe2 \xea\xee\xf0\xee\xeb\xe5\xe2\xf1\xf2\xe2\xe5 \xe7\xe2\xb8\xe7\xe4\\[DC] Hoshi Furu Oukoku no Nina - 10_Telegram.mp4" -lavfi "[0:v]settb=AVTB,setpts=PTS-STARTPTS,format=pix_fmts=yuv420p10,fps=24000/1001,scale=1920:1080:flags=bicubic[main];[1:v]settb=AVTB,setpts=PTS-STARTPTS,format=pix_fmts=yuv420p,fps=24000/1001,scale=1920:1080:flags=bicubic[ref];[main][ref]psnr=eof_action=endall:stats_file='D\\:/Convert/FFMetrics/logs/psnr_logfile-6.txt'" -f null -
Input #0, matroska,webm, from 'G:\Аниме\Онгоинги\!_36_Осень_2024\DreamCast\Нина в королевстве звёзд\[DC] Hoshi Furu Oukoku no Nina - 10_Telegram_HEVC.mkv':
  Metadata:
    COMPATIBLE_BRANDS: isomiso2avc1mp41
    MAJOR_BRAND     : isom
    MINOR_VERSION   : 512
    ENCODER         : Lavf61.7.100
  Duration: 00:23:46.69, start: -0.021000, bitrate: 812 kb/s
  Stream #0:0: Video: hevc (Main 10), yuv420p10le(tv, bt709, progressive), 1920x1080 [SAR 1:1 DAR 16:9], 23.98 fps, 23.98 tbr, 1k tbn (default)
      Metadata:
        HANDLER_NAME    : VideoHandler
        VENDOR_ID       : [0][0][0][0]
        ENCODER         : Lavc61.19.100 libx265
        BPS             : 615170
        DURATION        : 00:23:46.591708333
        NUMBER_OF_FRAMES: 34204
        NUMBER_OF_BYTES : 109699597
        _STATISTICS_WRITING_APP: mkvpropedit v66.0.0 ('Josie') 64-bit
        _STATISTICS_WRITING_DATE_UTC: 2025-06-01 13:26:30
        _STATISTICS_TAGS: BPS DURATION NUMBER_OF_FRAMES NUMBER_OF_BYTES
  Stream #0:1: Audio: aac (LC), 48000 Hz, stereo, fltp (default)
      Metadata:
        HANDLER_NAME    : SoundHandler
        VENDOR_ID       : [0][0][0][0]
        ENCODER         : Lavc61.19.100 aac
        BPS             : 193740
        DURATION        : 00:23:46.688000000
        NUMBER_OF_FRAMES: 66877
        NUMBER_OF_BYTES : 34550965
        _STATISTICS_WRITING_APP: mkvpropedit v66.0.0 ('Josie') 64-bit
        _STATISTICS_WRITING_DATE_UTC: 2025-06-01 13:26:30
        _STATISTICS_TAGS: BPS DURATION NUMBER_OF_FRAMES NUMBER_OF_BYTES
Input #1, mov,mp4,m4a,3gp,3g2,mj2, from 'G:\Аниме\Онгоинги\!_36_Осень_2024\DreamCast\Нина в королевстве звёзд\[DC] Hoshi Furu Oukoku no Nina - 10_Telegram.mp4':
  Metadata:
    major_brand     : isom
    minor_version   : 512
    compatible_brands: isomiso2avc1mp41
    encoder         : Lavf61.1.100
  Duration: 00:23:46.66, start: 0.000000, bitrate: 3825 kb/s
  Stream #1:0[0x1](und): Video: h264 (High) (avc1 / 0x31637661), yuv420p(tv, bt709, progressive), 1920x1080 [SAR 1:1 DAR 16:9], 3677 kb/s, 23.98 fps, 23.98 tbr, 24k tbn (default)
      Metadata:
        handler_name    : VideoHandler
        vendor_id       : [0][0][0][0]
        encoder         : Lavc61.3.100 h264_qsv
  Stream #1:1[0x2](und): Audio: aac (HE-AACv2) (mp4a / 0x6134706D), 48000 Hz, stereo, fltp, 144 kb/s (default)
      Metadata:
        handler_name    : SoundHandler
        vendor_id       : [0][0][0][0]
Stream mapping:
  Stream #0:0 (hevc) -> settb:default
  Stream #1:0 (h264) -> settb:default
  psnr:default -> Stream #0:0 (wrapped_avframe)
  Stream #0:1 -> #0:1 (aac (native) -> pcm_s16le (native))
Output #0, null, to 'pipe:':
  Metadata:
    COMPATIBLE_BRANDS: isomiso2avc1mp41
    MAJOR_BRAND     : isom
    MINOR_VERSION   : 512
    encoder         : Lavf61.7.100
  Stream #0:0: Video: wrapped_avframe, yuv420p10le(tv, bt709, progressive), 1920x1080 [SAR 1:1 DAR 16:9], q=2-31, 200 kb/s, 23.98 fps, 23.98 tbn
      Metadata:
        encoder         : Lavc61.19.100 wrapped_avframe
  Stream #0:1: Audio: pcm_s16le, 48000 Hz, stereo, s16, 1536 kb/s (default)
      Metadata:
        HANDLER_NAME    : SoundHandler
        VENDOR_ID       : [0][0][0][0]
        _STATISTICS_TAGS: BPS DURATION NUMBER_OF_FRAMES NUMBER_OF_BYTES
        BPS             : 193740
        DURATION        : 00:23:46.688000000
        NUMBER_OF_FRAMES: 66877
        NUMBER_OF_BYTES : 34550965
        _STATISTICS_WRITING_APP: mkvpropedit v66.0.0 ('Josie') 64-bit
        _STATISTICS_WRITING_DATE_UTC: 2025-06-01 13:26:30
        encoder         : Lavc61.19.100 pcm_s16le
frame=  169 fps=0.0 q=-0.0 size=N/A time=00:00:07.04 bitrate=N/A speed=  14x    frame=  433 fps=422 q=-0.0 size=N/A time=00:00:18.05 bitrate=N/A speed=17.6x    frame=  698 fps=455 q=-0.0 size=N/A time=00:00:29.11 bitrate=N/A speed=  19x    frame=  969 fps=471 q=-0.0 size=N/A time=00:00:40.41 bitrate=N/A speed=19.6x    frame= 1231 fps=478 q=-0.0 size=N/A time=00:00:51.34 bitrate=N/A speed=19.9x    frame= 1454 fps=470 q=-0.0 size=N/A time=00:01:00.64 bitrate=N/A speed=19.6x    frame= 1616 fps=446 q=-0.0 size=N/A time=00:01:07.40 bitrate=N/A speed=18.6x    frame= 1807 fps=437 q=-0.0 size=N/A time=00:01:15.36 bitrate=N/A speed=18.2x    frame= 1990 fps=427 q=-0.0 size=N/A time=00:01:22.99 bitrate=N/A speed=17.8x    frame= 2193 fps=424 q=-0.0 size=N/A time=00:01:31.46 bitrate=N/A speed=17.7x    frame= 2357 fps=415 q=-0.0 size=N/A time=00:01:38.30 bitrate=N/A speed=17.3x    frame= 2548 fps=411 q=-0.0 size=N/A time=00:01:46.27 bitrate=N/A speed=17.1x    frame= 2720 fps=405 q=-0.0 size=N/A time=00:01:53.44 bitrate=N/A speed=16.9x    frame= 2929 fps=406 q=-0.0 size=N/A time=00:02:02.16 bitrate=N/A speed=16.9x    frame= 3130 fps=404 q=-0.0 size=N/A time=00:02:10.54 bitrate=N/A speed=16.9x    frame= 3397 fps=412 q=-0.0 size=N/A time=00:02:21.68 bitrate=N/A speed=17.2x    frame= 3668 fps=418 q=-0.0 size=N/A time=00:02:32.98 bitrate=N/A speed=17.4x    frame= 3920 fps=422 q=-0.0 size=N/A time=00:02:43.49 bitrate=N/A speed=17.6x    frame= 4179 fps=426 q=-0.0 size=N/A time=00:02:54.29 bitrate=N/A speed=17.8x    frame= 4424 fps=428 q=-0.0 size=N/A time=00:03:04.51 bitrate=N/A speed=17.9x    frame= 4679 fps=432 q=-0.0 size=N/A time=00:03:15.15 bitrate=N/A speed=  18x    frame= 4952 fps=436 q=-0.0 size=N/A time=00:03:26.53 bitrate=N/A speed=18.2x    frame= 5209 fps=439 q=-0.0 size=N/A time=00:03:37.25 bitrate=N/A speed=18.3x    frame= 5475 fps=442 q=-0.0 size=N/A time=00:03:48.35 bitrate=N/A speed=18.4x    frame= 5723 fps=443 q=-0.0 size=N/A time=00:03:58.69 bitrate=N/A speed=18.5x    frame= 5967 fps=445 q=-0.0 size=N/A time=00:04:08.91 bitrate=N/A speed=18.6x    frame= 6218 fps=447 q=-0.0 size=N/A time=00:04:19.34 bitrate=N/A speed=18.6x    frame= 6490 fps=449 q=-0.0 size=N/A time=00:04:30.68 bitrate=N/A speed=18.7x    frame= 6745 fps=451 q=-0.0 size=N/A time=00:04:41.32 bitrate=N/A speed=18.8x    frame= 7024 fps=454 q=-0.0 size=N/A time=00:04:52.95 bitrate=N/A speed=18.9x    frame= 7294 fps=456 q=-0.0 size=N/A time=00:05:04.22 bitrate=N/A speed=  19x    frame= 7555 fps=458 q=-0.0 size=N/A time=00:05:15.10 bitrate=N/A speed=19.1x    frame= 7819 fps=459 q=-0.0 size=N/A time=00:05:26.11 bitrate=N/A speed=19.2x    frame= 8068 fps=460 q=-0.0 size=N/A time=00:05:36.50 bitrate=N/A speed=19.2x    frame= 8334 fps=462 q=-0.0 size=N/A time=00:05:47.59 bitrate=N/A speed=19.3x    frame= 8579 fps=462 q=-0.0 size=N/A time=00:05:57.81 bitrate=N/A speed=19.3x    frame= 8833 fps=463 q=-0.0 size=N/A time=00:06:08.40 bitrate=N/A speed=19.3x    frame= 9080 fps=463 q=-0.0 size=N/A time=00:06:18.71 bitrate=N/A speed=19.3x    frame= 9329 fps=464 q=-0.0 size=N/A time=00:06:29.09 bitrate=N/A speed=19.3x    frame= 9589 fps=465 q=-0.0 size=N/A time=00:06:39.94 bitrate=N/A speed=19.4x    frame= 9824 fps=465 q=-0.0 size=N/A time=00:06:49.74 bitrate=N/A speed=19.4x    frame=10066 fps=464 q=-0.0 size=N/A time=00:06:59.83 bitrate=N/A speed=19.4x    frame=10306 fps=464 q=-0.0 size=N/A time=00:07:09.84 bitrate=N/A speed=19.4x    frame=10554 fps=465 q=-0.0 size=N/A time=00:07:20.18 bitrate=N/A speed=19.4x    frame=10818 fps=466 q=-0.0 size=N/A time=00:07:31.20 bitrate=N/A speed=19.4x    frame=11047 fps=465 q=-0.0 size=N/A time=00:07:40.75 bitrate=N/A speed=19.4x    frame=11275 fps=465 q=-0.0 size=N/A time=00:07:50.26 bitrate=N/A speed=19.4x    frame=11503 fps=464 q=-0.0 size=N/A time=00:07:59.77 bitrate=N/A speed=19.4x    frame=11742 fps=464 q=-0.0 size=N/A time=00:08:09.73 bitrate=N/A speed=19.4x    frame=11995 fps=465 q=-0.0 size=N/A time=00:08:20.29 bitrate=N/A speed=19.4x    frame=12207 fps=464 q=-0.0 size=N/A time=00:08:29.13 bitrate=N/A speed=19.3x    frame=12432 fps=463 q=-0.0 size=N/A time=00:08:38.51 bitrate=N/A speed=19.3x    frame=12678 fps=464 q=-0.0 size=N/A time=00:08:48.77 bitrate=N/A speed=19.3x    frame=12936 fps=464 q=-0.0 size=N/A time=00:08:59.53 bitrate=N/A speed=19.4x    frame=13197 fps=465 q=-0.0 size=N/A time=00:09:10.42 bitrate=N/A speed=19.4x    frame=13466 fps=466 q=-0.0 size=N/A time=00:09:21.64 bitrate=N/A speed=19.4x    frame=13717 fps=466 q=-0.0 size=N/A time=00:09:32.11 bitrate=N/A speed=19.4x    frame=13950 fps=466 q=-0.0 size=N/A time=00:09:41.83 bitrate=N/A speed=19.4x    frame=14208 fps=467 q=-0.0 size=N/A time=00:09:52.59 bitrate=N/A speed=19.5x    frame=14464 fps=467 q=-0.0 size=N/A time=00:10:03.26 bitrate=N/A speed=19.5x    frame=14708 fps=467 q=-0.0 size=N/A time=00:10:13.44 bitrate=N/A speed=19.5x    frame=14946 fps=467 q=-0.0 size=N/A time=00:10:23.37 bitrate=N/A speed=19.5x    frame=15201 fps=468 q=-0.0 size=N/A time=00:10:34.00 bitrate=N/A speed=19.5x    frame=15393 fps=466 q=-0.0 size=N/A time=00:10:42.01 bitrate=N/A speed=19.4x    frame=15647 fps=467 q=-0.0 size=N/A time=00:10:52.61 bitrate=N/A speed=19.5x    frame=15896 fps=467 q=-0.0 size=N/A time=00:11:02.99 bitrate=N/A speed=19.5x    frame=16151 fps=467 q=-0.0 size=N/A time=00:11:13.63 bitrate=N/A speed=19.5x    frame=16411 fps=468 q=-0.0 size=N/A time=00:11:24.47 bitrate=N/A speed=19.5x    frame=16668 fps=468 q=-0.0 size=N/A time=00:11:35.19 bitrate=N/A speed=19.5x    frame=16920 fps=469 q=-0.0 size=N/A time=00:11:45.70 bitrate=N/A speed=19.5x    frame=17192 fps=469 q=-0.0 size=N/A time=00:11:57.04 bitrate=N/A speed=19.6x    frame=17426 fps=469 q=-0.0 size=N/A time=00:12:06.80 bitrate=N/A speed=19.6x    frame=17697 fps=470 q=-0.0 size=N/A time=00:12:18.11 bitrate=N/A speed=19.6x    frame=17975 fps=471 q=-0.0 size=N/A time=00:12:29.70 bitrate=N/A speed=19.6x    frame=18246 fps=471 q=-0.0 size=N/A time=00:12:41.01 bitrate=N/A speed=19.7x    frame=18516 fps=472 q=-0.0 size=N/A time=00:12:52.27 bitrate=N/A speed=19.7x    frame=18786 fps=473 q=-0.0 size=N/A time=00:13:03.53 bitrate=N/A speed=19.7x    frame=19063 fps=474 q=-0.0 size=N/A time=00:13:15.08 bitrate=N/A speed=19.8x    frame=19325 fps=474 q=-0.0 size=N/A time=00:13:26.01 bitrate=N/A speed=19.8x    frame=19587 fps=475 q=-0.0 size=N/A time=00:13:36.94 bitrate=N/A speed=19.8x    frame=19864 fps=475 q=-0.0 size=N/A time=00:13:48.49 bitrate=N/A speed=19.8x    frame=20133 fps=476 q=-0.0 size=N/A time=00:13:59.71 bitrate=N/A speed=19.8x    frame=20408 fps=477 q=-0.0 size=N/A time=00:14:11.18 bitrate=N/A speed=19.9x    frame=20636 fps=476 q=-0.0 size=N/A time=00:14:20.69 bitrate=N/A speed=19.9x    frame=20873 fps=476 q=-0.0 size=N/A time=00:14:30.57 bitrate=N/A speed=19.9x    frame=21153 fps=477 q=-0.0 size=N/A time=00:14:42.25 bitrate=N/A speed=19.9x    frame=21424 fps=477 q=-0.0 size=N/A time=00:14:53.55 bitrate=N/A speed=19.9x    frame=21695 fps=478 q=-0.0 size=N/A time=00:15:04.86 bitrate=N/A speed=19.9x    frame=21959 fps=478 q=-0.0 size=N/A time=00:15:15.87 bitrate=N/A speed=19.9x    frame=22252 fps=479 q=-0.0 size=N/A time=00:15:28.09 bitrate=N/A speed=  20x    frame=22521 fps=480 q=-0.0 size=N/A time=00:15:39.31 bitrate=N/A speed=  20x    frame=22761 fps=480 q=-0.0 size=N/A time=00:15:49.32 bitrate=N/A speed=  20x    frame=23007 fps=479 q=-0.0 size=N/A time=00:15:59.58 bitrate=N/A speed=  20x    frame=23264 fps=480 q=-0.0 size=N/A time=00:16:10.30 bitrate=N/A speed=  20x    frame=23527 fps=480 q=-0.0 size=N/A time=00:16:21.27 bitrate=N/A speed=  20x    frame=23769 fps=480 q=-0.0 size=N/A time=00:16:31.36 bitrate=N/A speed=  20x    frame=23996 fps=479 q=-0.0 size=N/A time=00:16:40.83 bitrate=N/A speed=  20x    frame=24255 fps=480 q=-0.0 size=N/A time=00:16:51.63 bitrate=N/A speed=  20x    frame=24518 fps=480 q=-0.0 size=N/A time=00:17:02.60 bitrate=N/A speed=  20x    frame=24775 fps=480 q=-0.0 size=N/A time=00:17:13.32 bitrate=N/A speed=  20x    frame=25034 fps=480 q=-0.0 size=N/A time=00:17:24.12 bitrate=N/A speed=  20x    frame=25286 fps=481 q=-0.0 size=N/A time=00:17:34.63 bitrate=N/A speed=  20x    frame=25546 fps=481 q=-0.0 size=N/A time=00:17:45.48 bitrate=N/A speed=20.1x    frame=25806 fps=481 q=-0.0 size=N/A time=00:17:56.32 bitrate=N/A speed=20.1x    frame=26050 fps=481 q=-0.0 size=N/A time=00:18:06.50 bitrate=N/A speed=20.1x    frame=26302 fps=481 q=-0.0 size=N/A time=00:18:17.01 bitrate=N/A speed=20.1x    frame=26573 fps=481 q=-0.0 size=N/A time=00:18:28.31 bitrate=N/A speed=20.1x    frame=26829 fps=482 q=-0.0 size=N/A time=00:18:38.99 bitrate=N/A speed=20.1x    frame=27049 fps=481 q=-0.0 size=N/A time=00:18:48.16 bitrate=N/A speed=20.1x    frame=27317 fps=481 q=-0.0 size=N/A time=00:18:59.34 bitrate=N/A speed=20.1x    frame=27577 fps=482 q=-0.0 size=N/A time=00:19:10.19 bitrate=N/A speed=20.1x    frame=27839 fps=482 q=-0.0 size=N/A time=00:19:21.11 bitrate=N/A speed=20.1x    frame=28111 fps=482 q=-0.0 size=N/A time=00:19:32.46 bitrate=N/A speed=20.1x    frame=28381 fps=483 q=-0.0 size=N/A time=00:19:43.72 bitrate=N/A speed=20.1x    frame=28661 fps=483 q=-0.0 size=N/A time=00:19:55.40 bitrate=N/A speed=20.2x    frame=28907 fps=483 q=-0.0 size=N/A time=00:20:05.66 bitrate=N/A speed=20.2x    frame=29138 fps=483 q=-0.0 size=N/A time=00:20:15.29 bitrate=N/A speed=20.1x    frame=29383 fps=483 q=-0.0 size=N/A time=00:20:25.51 bitrate=N/A speed=20.1x    frame=29629 fps=483 q=-0.0 size=N/A time=00:20:35.77 bitrate=N/A speed=20.1x    frame=29880 fps=483 q=-0.0 size=N/A time=00:20:46.24 bitrate=N/A speed=20.1x    frame=30136 fps=483 q=-0.0 size=N/A time=00:20:56.92 bitrate=N/A speed=20.1x    frame=30392 fps=483 q=-0.0 size=N/A time=00:21:07.59 bitrate=N/A speed=20.1x    frame=30616 fps=482 q=-0.0 size=N/A time=00:21:16.94 bitrate=N/A speed=20.1x    frame=30874 fps=482 q=-0.0 size=N/A time=00:21:27.70 bitrate=N/A speed=20.1x    frame=31114 fps=482 q=-0.0 size=N/A time=00:21:37.71 bitrate=N/A speed=20.1x    frame=31351 fps=482 q=-0.0 size=N/A time=00:21:47.59 bitrate=N/A speed=20.1x    frame=31590 fps=482 q=-0.0 size=N/A time=00:21:57.56 bitrate=N/A speed=20.1x    frame=31831 fps=482 q=-0.0 size=N/A time=00:22:07.61 bitrate=N/A speed=20.1x    frame=32084 fps=482 q=-0.0 size=N/A time=00:22:18.17 bitrate=N/A speed=20.1x    frame=32337 fps=482 q=-0.0 size=N/A time=00:22:28.72 bitrate=N/A speed=20.1x    frame=32598 fps=482 q=-0.0 size=N/A time=00:22:39.60 bitrate=N/A speed=20.1x    frame=32857 fps=482 q=-0.0 size=N/A time=00:22:50.41 bitrate=N/A speed=20.1x    frame=33093 fps=482 q=-0.0 size=N/A time=00:23:00.25 bitrate=N/A speed=20.1x    frame=33349 fps=482 q=-0.0 size=N/A time=00:23:10.93 bitrate=N/A speed=20.1x    frame=33597 fps=482 q=-0.0 size=N/A time=00:23:21.27 bitrate=N/A speed=20.1x    frame=33835 fps=482 q=-0.0 size=N/A time=00:23:31.20 bitrate=N/A speed=20.1x    frame=34085 fps=482 q=-0.0 size=N/A time=00:23:41.62 bitrate=N/A speed=20.1x    [Parsed_psnr_10 @ 000002398addca40] PSNR y:49.094917 u:50.826702 v:51.255636 average:49.650759 min:43.283549 max:inf
[out#0/null @ 000002398a864680] video:14697KiB audio:267508KiB subtitle:0KiB other streams:0KiB global headers:0KiB muxing overhead: unknown
frame=34204 fps=482 q=-0.0 Lsize=N/A time=00:23:46.59 bitrate=N/A speed=20.1x    
